<?xml version="1.0" encoding="utf-8"?>
<!-- Generator: Adobe Illustrator 19.0.0, SVG Export Plug-In . SVG Version: 6.00 Build 0)  -->
<svg  xmlns="http://www.w3.org/2000/svg" xmlns:xlink="http://www.w3.org/1999/xlink" class="" style=" " width="82" height="16" viewBox="0 0 82 16"><path d="M34.92 2.55a6.78 6.78 0 0 0-2.14-1.45 6.53 6.53 0 0 0-2.6-.53 6.73 6.73 0 0 0-2.46.43 6.8 6.8 0 0 0-2.11 1.31l-1.08-1.23a.62.62 0 0 0-.46-.21.61.61 0 0 0-.61.62v13.9A.62.62 0 0 0 24 16h2.62a.62.62 0 0 0 .61-.62v-8a2.84 2.84 0 0 1 .23-1.12 2.88 2.88 0 0 1 .62-.92 2.91 2.91 0 0 1 2.07-.85 2.78 2.78 0 0 1 1.11.23 2.91 2.91 0 0 1 1.53 1.55A2.87 2.87 0 0 1 33 7.35v8a.62.62 0 0 0 .62.62h2.62a.62.62 0 0 0 .61-.62v-8a6.68 6.68 0 0 0-.53-2.64 6.9 6.9 0 0 0-1.4-2.16zM64.62.89H54.31a.62.62 0 0 0-.61.62v2.61a.61.61 0 0 0 .61.62H55a.62.62 0 0 1 .62.62v3.87a6.66 6.66 0 0 0 .53 2.63 6.86 6.86 0 0 0 3.6 3.61 6.5 6.5 0 0 0 2.62.53h2.3a.62.62 0 0 0 .61-.62v-2.61a.62.62 0 0 0-.61-.62h-2.3a2.87 2.87 0 0 1-1.14-.23 3 3 0 0 1-.93-.63 2.9 2.9 0 0 1-.62-.93 2.86 2.86 0 0 1-.22-1.14V5.35a.62.62 0 0 1 .54-.62h4.61a.62.62 0 0 0 .61-.62v-2.6a.62.62 0 0 0-.6-.62zM81.39.61a.61.61 0 0 0-.47.22L80 1.92a.61.61 0 0 1-.87.08 9.12 9.12 0 0 0-.69-.54 8.63 8.63 0 0 0-1.3-.77 7.59 7.59 0 0 0-1.39-.51A5.9 5.9 0 0 0 74.29 0a7.69 7.69 0 0 0-3 .59 7.46 7.46 0 0 0-2.45 1.65 7.8 7.8 0 0 0-1.66 2.54A8.49 8.49 0 0 0 66.59 8a8.89 8.89 0 0 0 .6 3.38 7.36 7.36 0 0 0 1.66 2.51 7.1 7.1 0 0 0 2.45 1.56 8.29 8.29 0 0 0 3 .54 5.75 5.75 0 0 0 1.44-.19 7.88 7.88 0 0 0 1.39-.5 8.49 8.49 0 0 0 1.29-.75c.23-.16.45-.33.67-.5a.61.61 0 0 1 .88.12l.92 1.28A.61.61 0 0 0 82 15.1V1.23a.62.62 0 0 0-.61-.62zm-3.57 8.94a4.43 4.43 0 0 1-.82 1.31 4.12 4.12 0 0 1-1.22.92 3.34 3.34 0 0 1-1.49.34 4.11 4.11 0 0 1-1.49-.27 3.34 3.34 0 0 1-1.21-.79 3.7 3.7 0 0 1-.81-1.29A4.87 4.87 0 0 1 70.49 8a4.88 4.88 0 0 1 .3-1.76A3.76 3.76 0 0 1 71.6 5a3.37 3.37 0 0 1 1.21-.79 4.12 4.12 0 0 1 1.49-.27 3.32 3.32 0 0 1 1.49.34 4 4 0 0 1 1.21.88 4.43 4.43 0 0 1 .82 1.31 4.08 4.08 0 0 1 0 3.07zM3.26.86H.62a.62.62 0 0 0-.62.62v13.9a.62.62 0 0 0 .62.62h2.64a.62.62 0 0 0 .61-.62V1.48a.61.61 0 0 0-.61-.62zm10.83 1a.62.62 0 0 0-.47-1h-3a.61.61 0 0 0-.47.22L4.22 8a.61.61 0 0 0 0 .81l6 6.94a.61.61 0 0 0 .47.22h3a.62.62 0 0 0 .47-1L8.79 8.85a.62.62 0 0 1 0-.81zm5.77-1a.61.61 0 0 0-.47.21l-.12.14-2.5 2.86a.61.61 0 0 0-.15.4v10.91a.61.61 0 0 0 .61.62h2.62a.62.62 0 0 0 .61-.62V1.48a.62.62 0 0 0-.61-.62zM51.3 7.95A4.72 4.72 0 0 0 49.78 7a5.22 5.22 0 0 0-1.86-.33h-4a.91.91 0 0 1-.68-.29A1 1 0 0 1 43 5.7a1 1 0 0 1 1-1h7.18a.62.62 0 0 0 .61-.62V1.51a.62.62 0 0 0-.61-.62h-7.27a4.72 4.72 0 0 0-1.91.38 4.75 4.75 0 0 0-2.5 2.54 4.7 4.7 0 0 0-.37 1.88 4.7 4.7 0 0 0 .38 1.88A4.84 4.84 0 0 0 42 10.15a4.64 4.64 0 0 0 1.87.38H48a.82.82 0 0 1 .83.74.81.81 0 0 1-.81.89h-8.29a.61.61 0 0 0-.61.62v2.61a.61.61 0 0 0 .61.62h8.18a4.75 4.75 0 0 0 3.38-1.41 5 5 0 0 0 1-1.53 4.66 4.66 0 0 0 .38-1.87 4.32 4.32 0 0 0-.38-1.82 4.44 4.44 0 0 0-.99-1.43z" fill="#5333ed" data-name="figures and interactions"></path></svg>
