<?xml version="1.0" encoding="UTF-8"?>
<svg width="17px" height="21px" viewBox="0 0 17 21" version="1.1" xmlns="http://www.w3.org/2000/svg" xmlns:xlink="http://www.w3.org/1999/xlink">
    <!-- Generator: Sketch 42 (36781) - http://www.bohemiancoding.com/sketch -->
    <title>Group</title>
    <desc>Created with Sketch.</desc>
    <defs></defs>
    <g id="Page-1" stroke="none" stroke-width="1" fill="none" fill-rule="evenodd">
        <g id="Group" fill-rule="nonzero">
            <path d="M14.4980511,20.3290183 L2.25871736,20.3290183 C1.03478399,20.3290183 0.0333839548,19.2918234 0.0333839548,18.0241409 L0.0333839548,2.3509749 C0.0333839548,1.08329236 1.03478399,0.0460975471 2.25871736,0.0460975471 L14.4980511,0.0460975471 C15.7219845,0.0460975471 16.7233845,1.08329236 16.7233845,2.3509749 L16.7233845,18.0241409 C16.7233845,19.2918234 15.7219845,20.3290183 14.4980511,20.3290183 L14.4980511,20.3290183 Z" id="Shape" fill="#5DC0C0"></path>
            <path d="M14.5887882,19.7758477 L2.16995706,19.7758477 C1.31310222,19.7758477 0.612039171,19.0498113 0.612039171,18.1624335 L0.612039171,2.21268226 C0.612039171,1.32530448 1.31310222,0.599268112 2.16995706,0.599268112 L14.5887882,0.599268112 C15.4456431,0.599268112 16.1467061,1.32530448 16.1467061,2.21268226 L16.1467061,18.1624335 C16.1467061,19.0498113 15.4456431,19.7758477 14.5887882,19.7758477 L14.5887882,19.7758477 Z" id="Shape" fill="#FFFFFF"></path>
            <path d="M14.4997643,5.14218138 L2.25898094,5.14218138 C1.89175744,5.14218138 1.59130184,4.83102293 1.59130184,4.45071817 L1.59130184,2.09974327 C1.59130184,1.71943851 1.89175744,1.40828006 2.25898094,1.40828006 L14.4997643,1.40828006 C14.8669879,1.40828006 15.1674434,1.71943851 15.1674434,2.09974327 L15.1674434,4.45071817 C15.1674434,4.83102293 14.8669879,5.14218138 14.4997643,5.14218138 L14.4997643,5.14218138 Z" id="Shape" fill="#5DC0C0"></path>
            <ellipse id="Oval" fill="#FFFFFF" cx="13.5249529" cy="3.33976729" rx="0.712191035" ry="0.737560753"></ellipse>
            <path d="M14.4997643,9.73810682 L2.25898094,9.73810682 C1.89175744,9.73810682 1.59130184,9.42694838 1.59130184,9.04664361 L1.59130184,6.69566871 C1.59130184,6.31536395 1.89175744,6.00420551 2.25898094,6.00420551 L14.4997643,6.00420551 C14.8669879,6.00420551 15.1674434,6.31536395 15.1674434,6.69566871 L15.1674434,9.04664361 C15.1674434,9.42694838 14.8669879,9.73810682 14.4997643,9.73810682 L14.4997643,9.73810682 Z" id="Shape" fill="#5DC0C0"></path>
            <ellipse id="Oval" fill="#FFFFFF" cx="13.5249529" cy="7.93799761" rx="0.712191035" ry="0.737560753"></ellipse>
            <path d="M14.4997643,14.3455566 L2.25898094,14.3455566 C1.89175744,14.3455566 1.59130184,14.0343982 1.59130184,13.6540934 L1.59130184,11.3031185 C1.59130184,10.9228138 1.89175744,10.6116553 2.25898094,10.6116553 L14.4997643,10.6116553 C14.8669879,10.6116553 15.1674434,10.9228138 15.1674434,11.3031185 L15.1674434,13.6540934 C15.1674434,14.0343982 14.8669879,14.3455566 14.4997643,14.3455566 L14.4997643,14.3455566 Z" id="Shape" fill="#5DC0C0"></path>
            <ellipse id="Oval" fill="#FFFFFF" cx="13.5249529" cy="12.5431426" rx="0.712191035" ry="0.737560753"></ellipse>
            <path d="M14.4997643,18.9645309 L2.25898094,18.9645309 C1.89175744,18.9645309 1.59130184,18.6533724 1.59130184,18.2730677 L1.59130184,15.9220928 C1.59130184,15.541788 1.89175744,15.2306296 2.25898094,15.2306296 L14.4997643,15.2306296 C14.8669879,15.2306296 15.1674434,15.541788 15.1674434,15.9220928 L15.1674434,18.2730677 C15.1674434,18.6533724 14.8669879,18.9645309 14.4997643,18.9645309 L14.4997643,18.9645309 Z" id="Shape" fill="#5DC0C0"></path>
            <ellipse id="Oval" fill="#FFFFFF" cx="13.5249529" cy="17.1621168" rx="0.712191035" ry="0.737560753"></ellipse>
        </g>
    </g>
</svg>