<?xml version="1.0" encoding="utf-8"?>
<!-- Generator: Adobe Illustrator 16.0.0, SVG Export Plug-In . SVG Version: 6.00 Build 0)  -->
<!DOCTYPE svg PUBLIC "-//W3C//DTD SVG 1.1//EN" "http://www.w3.org/Graphics/SVG/1.1/DTD/svg11.dtd">
<svg version="1.1" id="Layer_1" xmlns="http://www.w3.org/2000/svg" xmlns:xlink="http://www.w3.org/1999/xlink" x="0px" y="0px"
	 width="128px" height="128px" viewBox="0 0 128 128" enable-background="new 0 0 128 128" xml:space="preserve">
<g>
	<g>
		<g>
			<path d="M29.4,33.158l-3.262,9.478c0.975,0.286,2.004,0.442,3.07,0.442c1.266,0,2.48-0.219,3.609-0.616
				c-0.028-0.047-0.055-0.096-0.077-0.151L29.4,33.158z M29.4,33.158"/>
			<path d="M18.34,32.206c0,4.305,2.5,8.022,6.125,9.784l-5.183-14.206C18.678,29.135,18.34,30.633,18.34,32.206L18.34,32.206z
				 M18.34,32.206"/>
			<path d="M36.547,31.659c0-1.344-0.482-2.272-0.896-2.997c-0.551-0.896-1.068-1.655-1.068-2.551c0-0.998,0.759-1.929,1.827-1.929
				c0.047,0,0.093,0.006,0.14,0.009c-1.933-1.771-4.509-2.853-7.34-2.853c-3.798,0-7.139,1.949-9.082,4.899
				c0.256,0.007,0.494,0.013,0.7,0.013c1.138,0,2.897-0.138,2.897-0.138c0.586-0.036,0.654,0.825,0.068,0.894
				c0,0-0.588,0.07-1.242,0.104l3.956,11.774l2.38-7.135l-1.693-4.64c-0.586-0.034-1.141-0.104-1.141-0.104
				c-0.586-0.034-0.517-0.929,0.068-0.894c0,0,1.795,0.138,2.863,0.138c1.137,0,2.897-0.138,2.897-0.138
				c0.587-0.035,0.655,0.825,0.069,0.894c0,0-0.59,0.07-1.244,0.104l3.928,11.686l1.085-3.623
				C36.189,33.67,36.547,32.589,36.547,31.659L36.547,31.659z M36.547,31.659"/>
			<path d="M38.748,26.992c0.045,0.347,0.072,0.718,0.072,1.118c0,1.103-0.206,2.342-0.826,3.894l-3.32,9.6
				c3.23-1.884,5.406-5.386,5.406-9.395C40.08,30.317,39.596,28.541,38.748,26.992L38.748,26.992z M38.748,26.992"/>
			<path d="M29.209,18.417c-7.616,0-13.791,6.175-13.791,13.792C15.418,39.824,21.593,46,29.209,46S43,39.824,43,32.209
				C43,24.592,36.825,18.417,29.209,18.417L29.209,18.417z M29.209,44.297c-6.666,0-12.088-5.422-12.088-12.091
				c0-6.665,5.422-12.088,12.088-12.088s12.09,5.423,12.09,12.088C41.299,38.875,35.875,44.297,29.209,44.297L29.209,44.297z
				 M29.209,44.297"/>
		</g>
		<g opacity="0.2">
			<rect x="44" y="111" width="6" height="11"/>
			<path d="M107,122l-1-28c0,0-2-18-22-24c0,0-0.25,0.25-1,0.75v-8.28c5.441-3.901,9-10.264,9-17.47v-1.95
				c2.46-0.067,4.438-2.073,4.438-4.55S94.46,34.018,92,33.95V30v-6v-1.5C92,10.626,82.374,1,70.5,1c-1.545,0-3.048,0.17-4.5,0.479
				C75.713,3.55,83,12.17,83,22.5V24h-8v6h8v15c0,6.297-2.718,11.949-7.032,15.879c-0.313,0.285-0.638,0.558-0.968,0.824
				c-2.579,2.085-5.639,3.601-9,4.317c1.452,0.31,2.955,0.479,4.5,0.479s3.048-0.17,4.5-0.479V76l4.446-2.778
				C82.3,74.671,98,83.182,98,95c0,13,0,27,0,27H107z"/>
			<path d="M48.766,45.29l0.102-2.372c-0.716-0.416-2.367-1.584-2.784-4.25s2.784-4.25,2.784-4.25s0.133-0.334,0-7.418
				c-0.056-2.963,0.207-5.449,0.531-7.351C45.314,13.248,38.155,9,30,9c-1.365,0-2.7,0.126-4,0.354C36.794,11.248,45,20.662,45,32
				s-8.206,20.752-19,22.646C27.3,54.874,28.635,55,30,55C37.749,55,44.599,51.163,48.766,45.29z"/>
		</g>
		<g>
			<g>
				<rect x="49.5" y="24.5" fill="none" width="42" height="5"/>
				<path fill="none" d="M59.5,63.29v0.064c3.204,1.981,6.964,3.146,11,3.146c11.579,0,21-9.421,21-21v-2v-0.474V42.5
					c2.206,0,4-1.794,4-4s-1.794-4-4-4v-0.351V33.5v-3h-42v3.102c0.323-0.066,0.657-0.102,1-0.102c0.276,0,0.5,0.224,0.5,0.5
					s-0.224,0.5-0.5,0.5c-2.206,0-4,1.794-4,4s1.794,4,4,4c0.276,0,0.5,0.224,0.5,0.5s-0.224,0.5-0.5,0.5
					c-0.343,0-0.677-0.035-1-0.102v1.563l0.064,0.755c-0.016,0.022-0.034,0.043-0.05,0.065c0.098,7.354,3.995,13.794,9.815,17.47
					L59.5,63.29z M76,51c0,2.757-2.243,5-5,5s-5-2.243-5-5v-0.5h10V51z M80,37c2.757,0,5,2.243,5,5h-1c0-2.206-1.794-4-4-4
					s-4,1.794-4,4h-1C75,39.243,77.243,37,80,37z M58,42h-1c0-2.757,2.243-5,5-5s5,2.243,5,5h-1c0-2.206-1.794-4-4-4
					S58,39.794,58,42z"/>
				<path fill="none" d="M59.5,64.54v6.222c2,0.808,6.222,4.738,11.357,4.738c5.219,0,10.617-3.915,11.634-4.735l0.009-0.025v-6.814
					c-3.454,2.257-7.575,3.575-12,3.575C66.494,67.5,62.738,66.418,59.5,64.54z"/>
				<path fill="none" d="M71,55c2.036,0,3.722-1.529,3.969-3.5h-7.938C67.278,53.471,68.964,55,71,55z"/>
				<path fill="none" d="M45.5,38.5c0-2.045,1.237-3.803,3-4.576V30.5v-7V23c0-1.358,0.13-2.686,0.367-3.977
					C44.788,13.266,38.077,9.5,30.5,9.5C18.094,9.5,8,19.594,8,32s10.094,22.5,22.5,22.5c7.357,0,13.894-3.557,18-9.035v-2.389
					C46.737,42.303,45.5,40.545,45.5,38.5z"/>
				<rect x="93" y="111.5" fill="none" width="13.5" height="10.5"/>
				<path fill="none" d="M83.546,71.217c0.015,0.064,0.016,0.123-0.041,0.17C83.25,71.596,77.388,76.5,71.232,76.5
					c-6.065,0-12.059-4.909-12.306-5.118c-0.048-0.041-0.132-0.091-0.214-0.144C45.576,74.221,35.5,85.979,35.5,100v10.5H50V108h1
					v14h41v-14h1v2.5h13.5V100C106.5,85.939,96.727,74.156,83.546,71.217z"/>
				<path fill="none" d="M91.5,23c0-11.579-9.421-21-21-21C60.361,2,51.879,9.223,49.925,18.792
					c0.017,0.024,0.035,0.048,0.052,0.072l-0.17,0.699C49.621,20.685,49.5,21.827,49.5,23v0.5h42V23z"/>
				<rect x="35.5" y="111.5" fill="none" width="14.5" height="10.5"/>
				<path d="M66,42h1c0-2.757-2.243-5-5-5s-5,2.243-5,5h1c0-2.206,1.794-4,4-4S66,39.794,66,42z"/>
				<path d="M80,38c2.206,0,4,1.794,4,4h1c0-2.757-2.243-5-5-5s-5,2.243-5,5h1C76,39.794,77.794,38,80,38z"/>
				<path d="M66,51c0,2.757,2.243,5,5,5s5-2.243,5-5v-0.5H66V51z M74.969,51.5C74.722,53.471,73.036,55,71,55
					s-3.722-1.529-3.969-3.5H74.969z"/>
				<path d="M107.5,122v-10.5v-1V100c0-14.674-10.182-26.945-24-29.838v-6.928c5.452-4.009,9-10.464,9-17.734v-2.102
					c2.279-0.465,4-2.484,4-4.898s-1.721-4.434-4-4.898V30.5v-7V23c0-12.131-9.869-22-22-22C60.191,1,51.521,8.129,49.146,17.713
					C44.848,12.115,38.088,8.5,30.5,8.5C17.542,8.5,7,19.042,7,32s10.542,23.5,23.5,23.5c7.255,0,13.744-3.313,18.058-8.495
					c0.48,7.079,4.323,13.247,9.942,16.92v6.31c-13.643,3.035-24,15.225-24,29.766v22h-13v1h100v-1H107.5z M49.5,23
					c0-1.173,0.121-2.315,0.307-3.437l0.17-0.699c-0.017-0.024-0.035-0.048-0.052-0.072C51.879,9.223,60.361,2,70.5,2
					c11.579,0,21,9.421,21,21v0.5h-42V23z M49.5,24.5h42v5h-42V24.5z M48.5,45.465c-4.106,5.479-10.643,9.035-18,9.035
					C18.094,54.5,8,44.406,8,32S18.094,9.5,30.5,9.5c7.577,0,14.288,3.766,18.367,9.523C48.63,20.314,48.5,21.642,48.5,23v0.5v7
					v3.424c-1.763,0.773-3,2.531-3,4.576s1.237,3.803,3,4.576V45.465z M49.515,45.781c0.016-0.022,0.034-0.043,0.05-0.065
					L49.5,44.961v-1.563c0.323,0.066,0.657,0.102,1,0.102c0.276,0,0.5-0.224,0.5-0.5s-0.224-0.5-0.5-0.5c-2.206,0-4-1.794-4-4
					s1.794-4,4-4c0.276,0,0.5-0.224,0.5-0.5s-0.224-0.5-0.5-0.5c-0.343,0-0.677,0.035-1,0.102V30.5h42v3v0.649V34.5
					c2.206,0,4,1.794,4,4s-1.794,4-4,4v0.526V43.5v2c0,11.579-9.421,21-21,21c-4.036,0-7.796-1.164-11-3.146V63.29l-0.17-0.039
					C53.51,59.575,49.612,53.136,49.515,45.781z M82.5,63.925v6.814l-0.009,0.025c-1.017,0.82-6.415,4.735-11.634,4.735
					c-5.136,0-9.357-3.931-11.357-4.738V64.54c3.238,1.878,6.994,2.96,11,2.96C74.925,67.5,79.046,66.182,82.5,63.925z M50,122H35.5
					v-10.5H50V122z M106.5,122H93v-10.5h13.5V122z M106.5,110.5H93V108h-1v14H51v-14h-1v2.5H35.5V100
					c0-14.021,10.076-25.779,23.213-28.762c0.082,0.053,0.166,0.103,0.214,0.144c0.247,0.209,6.24,5.118,12.306,5.118
					c6.155,0,12.018-4.904,12.272-5.113c0.057-0.047,0.056-0.105,0.041-0.17C96.727,74.156,106.5,85.939,106.5,100V110.5z"/>
				<rect x="31.5" y="125" width="32" height="1"/>
				<rect x="67.5" y="125" width="46" height="1"/>
			</g>
			<path d="M97.195,11.902c-0.055-0.272-0.329-0.449-0.588-0.393c-2.195,0.439-4.357,1.949-6.132,3.557
				c0.137,0.324,0.268,0.659,0.394,1.003c1.721-1.609,3.841-3.16,5.934-3.579C97.074,12.437,97.25,12.173,97.195,11.902z"/>
			<path d="M96.705,27.5c0.128,0,0.256-0.049,0.354-0.146c0.195-0.195,0.195-0.512,0-0.707c-1.438-1.438-3.264-1.821-4.859-1.804
				c0.01,0.337,0.02,0.675,0.026,1.008c1.383-0.011,2.938,0.315,4.126,1.503C96.449,27.451,96.577,27.5,96.705,27.5z"/>
			<path d="M100.093,19.578c9.346-4.821,10.875-11.568,11.094-14.315C109.791,6.242,106.484,7.5,98.705,7.5
				c-4.542,0-7.74,1.903-9.96,4.231c-0.18-0.289-0.355-0.563-0.526-0.814C90.59,8.48,93.97,6.5,98.705,6.5
				c11.229,0,12.521-2.652,12.533-2.679c0.092-0.21,0.319-0.336,0.545-0.304c0.226,0.037,0.401,0.213,0.42,0.44
				c0.01,0.109,0.644,9.741-11.037,16.163c0.265,0.144,0.529,0.29,0.796,0.45c0.098,0.074,3.088,2.596,6.41,2.596
				c1.908,0,3.574-0.837,4.949-2.487c0.15-0.181,0.406-0.23,0.613-0.124c0.209,0.108,0.314,0.347,0.254,0.573
				c-0.032,0.12-3.385,12.049-18.069,12.049c-1.249,0-2.561-0.098-3.91-0.27c0.008-0.321,0.015-0.655,0.021-1.004
				c1.345,0.177,2.648,0.273,3.889,0.273c10.206,0,14.623-6.013,16.266-9.27c-1.197,0.837-2.54,1.259-4.013,1.259
				c-3.698,0-6.859-2.674-6.992-2.787c-0.43-0.257-0.857-0.482-1.284-0.693c-1.272,0.637-2.673,1.237-4.225,1.785
				c-1.369,0.483-2.596,0.924-3.707,1.329c-0.014-0.35-0.027-0.697-0.044-1.048c1.068-0.388,2.192-0.792,3.419-1.225
				c1.217-0.43,2.337-0.89,3.373-1.372L100.093,19.578z"/>
		</g>
	</g>
	<g>
		<path fill="#EB1364" d="M56.728,99.425v-9.271h4.949c2.168,0,3.336,1.445,3.336,3.183c0,1.724-1.168,3.17-3.336,3.17h-2.141v2.919
			H56.728z M62.163,93.336c0-0.5-0.375-0.736-0.848-0.736h-1.779v1.46h1.779C61.788,94.06,62.163,93.823,62.163,93.336z"/>
		<path fill="#EB1364" d="M71.03,99.425l-1.279-2.919h-1.014v2.919h-2.809v-9.271h4.949c2.168,0,3.336,1.445,3.336,3.183
			c0,1.599-0.932,2.447-1.668,2.809l1.682,3.28H71.03z M71.364,93.322c0-0.5-0.445-0.723-0.918-0.723h-1.709v1.46h1.709
			C70.919,94.06,71.364,93.837,71.364,93.322z"/>
		<path fill="#EB1364" d="M74.853,94.796c0-2.85,2.21-4.796,5.074-4.796C82.79,90,85,91.946,85,94.796s-2.21,4.796-5.073,4.796
			C77.063,99.592,74.853,97.646,74.853,94.796z M82.15,94.796c0-1.293-0.876-2.321-2.224-2.321c-1.35,0-2.225,1.028-2.225,2.321
			s0.875,2.321,2.225,2.321C81.274,97.117,82.15,96.089,82.15,94.796z"/>
	</g>
</g>
</svg>
