<?xml version="1.0" encoding="UTF-8" standalone="no"?>
<svg width="14px" height="14px" viewBox="0 0 14 14" version="1.1" xmlns="http://www.w3.org/2000/svg" xmlns:xlink="http://www.w3.org/1999/xlink">
    <!-- Generator: Sketch 39.1 (31720) - http://www.bohemiancoding.com/sketch -->
    <title>Shape</title>
    <desc>Created with Sketch.</desc>
    <defs></defs>
    <g id="Page-1" stroke="none" stroke-width="1" fill="none" fill-rule="evenodd">
        <g id="1470685897_info" fill="#3C3C3C">
            <g id="Layer_x0020_1">
                <path d="M7,0 C10.8658777,0 14,3.13412229 14,7 C14,10.8658777 10.8658777,14 7,14 C3.13412229,14 0,10.8658777 0,7 C0,3.13412229 3.13412229,0 7,0 L7,0 Z M7,2.95118343 C7.50739645,2.95118343 7.92159763,3.36193294 7.92159763,3.87278107 C7.92159763,4.38017751 7.51084813,4.7943787 7,4.7943787 C6.49260355,4.7943787 6.07840237,4.38362919 6.07840237,3.87278107 C6.07840237,3.36538462 6.48915187,2.95118343 7,2.95118343 L7,2.95118343 Z M7,5.42948718 L7,5.42948718 C7.41074951,5.42948718 7.74556213,5.7642998 7.74556213,6.17504931 L7.74556213,10.2376726 C7.74556213,10.6484221 7.41074951,10.9832347 7,10.9832347 L7,10.9832347 C6.58925049,10.9832347 6.25443787,10.6484221 6.25443787,10.2376726 L6.25443787,6.17504931 C6.25443787,5.7642998 6.58925049,5.42948718 7,5.42948718 L7,5.42948718 Z M7,1.11143984 C10.2514793,1.11143984 12.8885602,3.74852071 12.8885602,7 C12.8885602,10.2514793 10.2514793,12.8885602 7,12.8885602 C3.74852071,12.8885602 1.11143984,10.2514793 1.11143984,7 C1.11143984,3.74852071 3.74852071,1.11143984 7,1.11143984 L7,1.11143984 Z" id="Shape"></path>
            </g>
        </g>
    </g>
</svg>