<?xml version="1.0" encoding="utf-8"?>
<!-- Generator: Adobe Illustrator 19.0.0, SVG Export Plug-In . SVG Version: 6.00 Build 0)  -->
<svg version="1.1" width="48px" height="9px" id="Layer_1" xmlns="http://www.w3.org/2000/svg" xmlns:xlink="http://www.w3.org/1999/xlink" x="0px" y="0px"
	 viewBox="0 0 4774 879" style="enable-background:new 0 0 4774 879;" xml:space="preserve">
<style type="text/css">
	.st0{fill:#5DC0C0;}
	.st1{fill:#FFFFFF;}
	.st2{fill:none;}
	.st3{fill:#5E6768;}
</style>
<path id="XMLID_1_" class="st0" d="M651.5,880h-550c-55,0-100-45-100-100V100c0-55,45-100,100-100h550c55,0,100,45,100,100v680
	C751.5,835,706.5,880,651.5,880z"/>
<path id="XMLID_18_" class="st1" d="M655.5,856h-558c-38.5,0-70-31.5-70-70V94c0-38.5,31.5-70,70-70h558c38.5,0,70,31.5,70,70v692
	C725.5,824.5,694,856,655.5,856z"/>
<path id="XMLID_2_" class="st0" d="M651.5,221.1h-550c-16.5,0-30-13.5-30-30v-102c0-16.5,13.5-30,30-30h550c16.5,0,30,13.5,30,30
	v102C681.5,207.6,668,221.1,651.5,221.1z"/>
<circle id="XMLID_19_" class="st1" cx="607.7" cy="142.9" r="32"/>
<path id="XMLID_21_" class="st0" d="M651.5,420.5h-550c-16.5,0-30-13.5-30-30v-102c0-16.5,13.5-30,30-30h550c16.5,0,30,13.5,30,30
	v102C681.5,407,668,420.5,651.5,420.5z"/>
<circle id="XMLID_20_" class="st1" cx="607.7" cy="342.4" r="32"/>
<path id="XMLID_25_" class="st0" d="M651.5,620.4h-550c-16.5,0-30-13.5-30-30v-102c0-16.5,13.5-30,30-30h550c16.5,0,30,13.5,30,30
	v102C681.5,606.9,668,620.4,651.5,620.4z"/>
<circle id="XMLID_24_" class="st1" cx="607.7" cy="542.2" r="32"/>
<path id="XMLID_23_" class="st0" d="M651.5,820.8h-550c-16.5,0-30-13.5-30-30v-102c0-16.5,13.5-30,30-30h550c16.5,0,30,13.5,30,30
	v102C681.5,807.3,668,820.8,651.5,820.8z"/>
<circle id="XMLID_22_" class="st1" cx="607.7" cy="742.6" r="32"/>
<g id="XMLID_27_">
	<polygon id="XMLID_29_" class="st2" points="1374.6,-1.1 1046.6,-1.1 1046.6,439.4 	"/>
	<path id="XMLID_30_" class="st2" d="M4277.6,421.2c-15.2-16.6-32.9-29.9-53.1-39.9c-20.3-10-41.9-15-64.8-15
		c-22.9,0-44.5,3.9-64.8,11.7c-20.3,7.8-37.9,19.3-52.8,34.4c-15,15.2-26.7,33.9-35.3,56.2s-12.9,47.8-12.9,76.5
		c0,28.7,4.3,54.2,12.9,76.5s20.4,41,35.3,56.2c14.9,15.2,32.5,26.6,52.8,34.4c20.3,7.8,41.9,11.7,64.8,11.7c22.9,0,44.5-5,64.8-15
		c20.3-10,38-23.3,53.1-39.9c15.2-16.6,27.1-35.6,35.9-57.1s13.2-43.7,13.2-66.6s-4.4-45.2-13.2-66.7S4292.7,437.8,4277.6,421.2z"/>
	<polygon id="XMLID_31_" class="st3" points="1046.6,439.4 1046.6,-1.1 1033,-1.1 870.3,-1.1 870.3,879.8 1046.6,879.8
		1046.6,703.5 1181.1,523.5 1374.6,879.8 1574.9,879.8 1296.6,370.6 1574.9,-1.1 1374.6,-1.1 	"/>
	<path id="XMLID_32_" class="st3" d="M4748.1,736.9c-7.7-7.5-16.6-13.5-26.9-17.9c-10.3-4.4-21.2-6.7-32.9-6.7
		c-11.7,0-22.6,2.2-32.9,6.7c-10.3,4.4-19.2,10.4-26.7,17.9c-7.5,7.5-13.5,16.4-18,26.7c-4.4,10.3-6.7,21.1-6.7,32.4
		c0,11.7,2.2,22.6,6.7,32.7c4.4,10.1,10.4,18.9,18,26.5c7.5,7.5,16.4,13.5,26.7,17.9c10.3,4.4,21.2,6.7,32.9,6.7
		c11.7,0,22.6-2.2,32.9-6.7c10.3-4.4,19.2-10.4,26.9-17.9c7.7-7.5,13.7-16.3,18.2-26.5c4.4-10.1,6.7-21,6.7-32.7
		c0-11.3-2.2-22.2-6.7-32.4C4761.9,753.3,4755.8,744.4,4748.1,736.9z"/>
	<path id="XMLID_36_" class="st3" d="M1788.9,25c-7.7-7.5-16.6-13.5-26.9-17.9c-10.3-4.4-21.2-6.7-32.9-6.7s-22.6,2.2-32.9,6.7
		c-10.3,4.4-19.2,10.4-26.7,17.9c-7.5,7.5-13.5,16.4-18,26.7c-4.4,10.3-6.7,21.1-6.7,32.4c0,11.7,2.2,22.6,6.7,32.7
		c4.4,10.1,10.4,18.9,18,26.5c7.5,7.5,16.4,13.5,26.7,17.9s21.2,6.7,32.9,6.7s22.6-2.2,32.9-6.7s19.2-10.4,26.9-17.9
		c7.7-7.5,13.7-16.3,18.2-26.5c4.4-10.1,6.7-21,6.7-32.7c0-11.3-2.2-22.2-6.7-32.4C1802.7,41.4,1796.6,32.5,1788.9,25z"/>
	<rect id="XMLID_37_" x="1644.9" y="221.9" class="st3" width="168.9" height="657.9"/>
	<path id="XMLID_38_" class="st3" d="M2443.4,295.3c-26.6-26.8-57.8-47.9-93.4-63.3c-35.6-15.3-73.5-23-113.6-23
		c-37.3,0-73,6.7-107.2,20s-64.8,32.3-91.8,56.8l-55.3-63.9h-40.5v657.9h167.7V503.9c0-17.2,3.3-33.5,9.8-48.8
		c6.5-15.4,15.5-28.8,27-40.2s25-20.5,40.5-27c15.6-6.5,32.1-9.8,49.8-9.8c17.2,0,33.4,3.3,48.5,9.8c15.2,6.6,28.5,15.6,39.9,27
		s20.5,24.9,27,40.2c6.5,15.4,9.8,31.6,9.8,48.8v375.9h167.7V503.9c0-40.5-7.7-78.7-23-114.6C2491,353.5,2470,322.1,2443.4,295.3z"
		/>
	<path id="XMLID_39_" class="st3" d="M3157.2,529.7c-18.8-17.2-41-30.6-66.3-40.2s-52.4-14.4-81.1-14.4h-174.4
		c-11.5,0-21.3-4.2-29.5-12.6c-8.2-8.4-12.3-18.5-12.3-30.4c0-11.5,4.1-21.3,12.3-29.5s18-12.3,29.5-12.3H3175V223.1h-339.7
		c-29.1,0-56.3,5.4-81.7,16.3c-25.4,10.8-47.5,25.7-66.3,44.5s-33.7,41-44.5,66.3c-10.9,25.4-16.3,52.6-16.3,81.7
		c0,29.1,5.4,56.3,16.3,81.7c10.8,25.4,25.7,47.6,44.5,66.6c18.8,19,41,34.1,66.3,45.2c25.4,11.1,52.6,16.6,81.7,16.6h174.4
		c11.5,0,21.3,1.8,29.5,5.5s12.3,11.5,12.3,23.3c0,11.5-4.1,21.3-12.3,29.5s-18,12.3-29.5,12.3h-383.3v167.1h383.3
		c28.7,0,55.7-5.4,81.1-16.3c25.4-10.8,47.5-25.8,66.3-44.8c18.8-19,33.8-41.1,44.8-66.3s16.6-52.3,16.6-81.4
		c0-28.7-5.5-55.1-16.6-79.2S3176,546.9,3157.2,529.7z"/>
	<path id="XMLID_40_" class="st3" d="M3343.3,223.1h-81.7v167.1h81.7v195.3c0,40.5,7.7,78.6,23,114.3c15.3,35.6,36.4,66.9,63.3,93.7
		c26.8,26.8,58,47.9,93.7,63.3c35.6,15.4,73.7,23,114.3,23h127.2V712.7h-127.2c-17.6,0-34.2-3.4-49.8-10.1s-29.1-15.9-40.5-27.3
		s-20.5-24.9-27-40.2c-6.6-15.3-9.8-31.8-9.8-49.5V390.2h254.3V223.1h-254.3V-1.1h-167.1V223.1z"/>
	<path id="XMLID_43_" class="st3" d="M4390,288.9c-15.6-14.8-32.3-28.5-50.1-41.2s-36.5-23.8-56.2-33.2
		c-19.7-9.4-39.9-16.8-60.8-22.1c-20.9-5.3-42-8-63.3-8c-46.3,0-89.8,8.5-130.5,25.5s-76.4,40.8-106.9,71.6s-54.6,67.5-72.2,110.3
		s-26.4,89.8-26.4,141c0,54.9,8.8,103.8,26.4,146.8s41.7,79.3,72.2,109s66.1,52.3,106.9,67.9s84.3,23.3,130.5,23.3
		c21.3,0,42.3-2.7,63-8c20.7-5.3,40.8-12.6,60.5-21.8s38.4-20.1,56.2-32.6c17.8-12.5,34.7-25.9,50.7-40.2l65.1,90.3h40.5V210.9
		h-40.5L4390,288.9z M4313.5,599.4c-8.8,21.5-20.8,40.5-35.9,57.1c-15.2,16.6-32.9,29.9-53.1,39.9c-20.3,10-41.9,15-64.8,15
		c-22.9,0-44.5-3.9-64.8-11.7c-20.3-7.8-37.9-19.2-52.8-34.4c-15-15.2-26.7-33.9-35.3-56.2s-12.9-47.8-12.9-76.5
		c0-28.7,4.3-54.2,12.9-76.5s20.4-41,35.3-56.2c14.9-15.2,32.5-26.6,52.8-34.4c20.3-7.8,41.9-11.7,64.8-11.7c22.9,0,44.5,5,64.8,15
		c20.3,10,38,23.3,53.1,39.9c15.2,16.6,27.1,35.6,35.9,57.1s13.2,43.7,13.2,66.7C4326.7,555.7,4322.3,577.9,4313.5,599.4z"/>
</g>
<rect id="_x3C_Slice_x3E_" class="st2" width="4774" height="894"/>
</svg>
