<?xml version="1.0" encoding="UTF-8"?>
<svg width="17px" height="55px" viewBox="0 0 17 55" version="1.1" xmlns="http://www.w3.org/2000/svg" xmlns:xlink="http://www.w3.org/1999/xlink">
    <!-- Generator: Sketch 47 (45396) - http://www.bohemiancoding.com/sketch -->
    <title>Artboard</title>
    <desc>Created with Sketch.</desc>
    <defs></defs>
    <g id="Page-1" stroke="none" stroke-width="1" fill="none" fill-rule="evenodd">
        <g id="Artboard">
            <g id="Group" transform="translate(8.500000, 10.500000) scale(-1, 1) rotate(-180.000000) translate(-8.500000, -10.500000) translate(0.000000, 2.000000)">
                <rect id="Rectangle" fill="#29AECC" x="0" y="0" width="17" height="17" rx="2"></rect>
                <g id="Group-2" transform="translate(3.000000, 2.000000)" fill-rule="nonzero" fill="#0E0566">
                    <path d="M0.153063777,12.8299469 L0,12.6598937 L0.00900375156,6.47796186 L0.0225093789,0.296030009 L0.148561901,0.160987809 L0.270112547,0.020944045 L1.46310963,0.00593935605 C2.52105044,-0.00906533292 2.66511046,0.00093779306 2.76865361,0.0759612379 C3.01625677,0.256017505 3.00275115,-0.0490778368 2.99824927,6.52297593 C2.99374739,12.3147859 2.98924552,12.6348859 2.91271363,12.7649265 C2.86769487,12.8449515 2.78215923,12.9249766 2.71913297,12.9499844 C2.65610671,12.9799937 2.08887036,13 1.45410588,13 L0.306127553,13 L0.153063777,12.8299469 Z" id="Shape"></path>
                    <path d="M7.99169191,12.9409344 C7.92311346,12.9108858 7.70366241,12.6704969 7.50249895,12.4150837 C7.30133549,12.1546624 7.12760342,11.934306 7.11388772,11.9192817 C7.10017203,11.9042574 6.83957392,11.5787308 6.54240063,11.1931069 C6.24065544,10.8074831 5.98462922,10.4819565 5.97091353,10.4669322 C5.95719784,10.4519079 5.82461283,10.2866406 5.67374023,10.0913246 C5.52286764,9.90101674 5.39028263,9.73074128 5.37656694,9.71571698 C5.35370746,9.69067647 4.90108968,9.1147448 4.69078242,8.84430731 C4.62677587,8.75916959 4.50333466,8.60391844 4.41189672,8.4937402 C3.88155669,7.8326708 3.08604665,6.79599378 3.04489958,6.70584796 C2.92145836,6.45544288 3.0174682,6.27515122 3.78097496,5.30858763 C4.18787378,4.79776127 4.59020069,4.28192681 4.68163863,4.16173238 C4.77764846,4.04153794 4.8736583,3.9163354 4.89651778,3.88628679 C4.92394916,3.85623818 5.06567796,3.67594653 5.21655056,3.48063057 C5.36742315,3.29032271 5.50000816,3.12004726 5.51372385,3.10502295 C5.52743954,3.08999865 5.78803765,2.76447205 6.08521095,2.37884823 C6.38695613,1.99322441 6.67498563,1.627633 6.7252765,1.56753578 C6.77556736,1.50243046 7.04530927,1.16187956 7.31962308,0.806304347 C7.59850879,0.450729138 7.87739449,0.125202538 7.94597294,0.0801296246 C8.04655467,0.0100162031 8.24771813,0 9.36783284,0 L10.6708234,0 L10.8125522,0.13021064 C11.0137157,0.315510397 11.0548628,0.676093707 10.8948464,0.861393464 C10.8628431,0.896450175 10.7256862,1.07173373 10.5885293,1.25202538 C10.4513724,1.43231704 10.3142155,1.60259249 10.2867841,1.627633 C10.2639246,1.65768161 10.0581893,1.91309479 9.82959442,2.20356468 C9.60557148,2.49403456 9.41355181,2.73943154 9.39983612,2.75445584 C9.38612043,2.76948015 9.18952887,3.01487712 8.96550593,3.30534701 C8.74148298,3.5958169 8.54489142,3.84121388 8.53117573,3.85623818 C8.45345349,3.93135971 6.75270788,6.10487577 6.68870132,6.2100459 C6.56983201,6.40035376 6.58811959,6.68080745 6.73899219,6.87111531 C7.02244979,7.24171482 7.68994672,8.09309208 7.73109379,8.1431731 C7.85453501,8.28840804 9.1483818,9.92104914 9.78844735,10.7423778 C10.0901925,11.1229935 10.3690782,11.4785687 10.4056534,11.5186335 C10.8171241,12.0044194 11,12.2898812 11,12.4551485 C11,12.6204159 10.8811307,12.8557966 10.7576895,12.9309182 C10.6159607,13.0160559 8.16999588,13.0260721 7.99169191,12.9409344 Z" id="Shape"></path>
                </g>
            </g>
            <g id="Group" transform="translate(8.500000, 45.500000) scale(-1, 1) rotate(-180.000000) translate(-8.500000, -45.500000) translate(3.000000, 39.000000)" fill-rule="nonzero" fill="#9EA3A9">
                <g id="Group-2" transform="translate(-0.000000, 0.000000)">
                    <path d="M0.153063777,12.8299469 L0,12.6598937 L0.00900375156,6.47796186 L0.0225093789,0.296030009 L0.148561901,0.160987809 L0.270112547,0.020944045 L1.46310963,0.00593935605 C2.52105044,-0.00906533292 2.66511046,0.00093779306 2.76865361,0.0759612379 C3.01625677,0.256017505 3.00275115,-0.0490778368 2.99824927,6.52297593 C2.99374739,12.3147859 2.98924552,12.6348859 2.91271363,12.7649265 C2.86769487,12.8449515 2.78215923,12.9249766 2.71913297,12.9499844 C2.65610671,12.9799937 2.08887036,13 1.45410588,13 L0.306127553,13 L0.153063777,12.8299469 Z" id="Shape"></path>
                    <path d="M7.99169191,12.9409344 C7.92311346,12.9108858 7.70366241,12.6704969 7.50249895,12.4150837 C7.30133549,12.1546624 7.12760342,11.934306 7.11388772,11.9192817 C7.10017203,11.9042574 6.83957392,11.5787308 6.54240063,11.1931069 C6.24065544,10.8074831 5.98462922,10.4819565 5.97091353,10.4669322 C5.95719784,10.4519079 5.82461283,10.2866406 5.67374023,10.0913246 C5.52286764,9.90101674 5.39028263,9.73074128 5.37656694,9.71571698 C5.35370746,9.69067647 4.90108968,9.1147448 4.69078242,8.84430731 C4.62677587,8.75916959 4.50333466,8.60391844 4.41189672,8.4937402 C3.88155669,7.8326708 3.08604665,6.79599378 3.04489958,6.70584796 C2.92145836,6.45544288 3.0174682,6.27515122 3.78097496,5.30858763 C4.18787378,4.79776127 4.59020069,4.28192681 4.68163863,4.16173238 C4.77764846,4.04153794 4.8736583,3.9163354 4.89651778,3.88628679 C4.92394916,3.85623818 5.06567796,3.67594653 5.21655056,3.48063057 C5.36742315,3.29032271 5.50000816,3.12004726 5.51372385,3.10502295 C5.52743954,3.08999865 5.78803765,2.76447205 6.08521095,2.37884823 C6.38695613,1.99322441 6.67498563,1.627633 6.7252765,1.56753578 C6.77556736,1.50243046 7.04530927,1.16187956 7.31962308,0.806304347 C7.59850879,0.450729138 7.87739449,0.125202538 7.94597294,0.0801296246 C8.04655467,0.0100162031 8.24771813,0 9.36783284,0 L10.6708234,0 L10.8125522,0.13021064 C11.0137157,0.315510397 11.0548628,0.676093707 10.8948464,0.861393464 C10.8628431,0.896450175 10.7256862,1.07173373 10.5885293,1.25202538 C10.4513724,1.43231704 10.3142155,1.60259249 10.2867841,1.627633 C10.2639246,1.65768161 10.0581893,1.91309479 9.82959442,2.20356468 C9.60557148,2.49403456 9.41355181,2.73943154 9.39983612,2.75445584 C9.38612043,2.76948015 9.18952887,3.01487712 8.96550593,3.30534701 C8.74148298,3.5958169 8.54489142,3.84121388 8.53117573,3.85623818 C8.45345349,3.93135971 6.75270788,6.10487577 6.68870132,6.2100459 C6.56983201,6.40035376 6.58811959,6.68080745 6.73899219,6.87111531 C7.02244979,7.24171482 7.68994672,8.09309208 7.73109379,8.1431731 C7.85453501,8.28840804 9.1483818,9.92104914 9.78844735,10.7423778 C10.0901925,11.1229935 10.3690782,11.4785687 10.4056534,11.5186335 C10.8171241,12.0044194 11,12.2898812 11,12.4551485 C11,12.6204159 10.8811307,12.8557966 10.7576895,12.9309182 C10.6159607,13.0160559 8.16999588,13.0260721 7.99169191,12.9409344 Z" id="Shape"></path>
                </g>
            </g>
        </g>
    </g>
</svg>